<?xml version="1.0" encoding="UTF-8" standalone="no"?>
<!DOCTYPE svg PUBLIC "-//W3C//DTD SVG 1.1//EN" "http://www.w3.org/Graphics/SVG/1.1/DTD/svg11.dtd">
<svg width="100%" height="100%" viewBox="0 0 186 104" version="1.1" xmlns="http://www.w3.org/2000/svg" xmlns:xlink="http://www.w3.org/1999/xlink" xml:space="preserve" style="fill-rule:evenodd;clip-rule:evenodd;stroke-linejoin:round;stroke-miterlimit:1.41421;">
    <g transform="matrix(1,0,0,1,-176.164,-177.018)">
        <path d="M222.316,187.482C225.1,187.482 227.404,185.178 227.404,182.49C227.404,180.09 225.58,177.978 223.276,177.498C220.588,177.018 218.86,177.018 217.996,177.018C209.644,177.018 205.9,181.434 205.42,191.418L203.884,191.418C200.908,191.418 198.604,193.722 198.604,196.698C198.604,199.674 200.908,201.882 203.884,201.882L205.42,201.882L205.42,225.69C205.42,227.706 207.916,229.818 211.084,229.818C214.252,229.818 216.748,227.706 216.748,225.69L216.748,201.882L222.508,201.882C225.484,201.882 227.788,199.674 227.788,196.698C227.788,193.722 225.484,191.418 222.508,191.418L216.748,191.418C216.844,189.498 216.94,187.386 219.628,187.386C220.396,187.386 221.26,187.386 222.316,187.482Z" style="fill-rule:nonzero;"/>
        <path d="M250.252,217.05C248.62,218.874 246.7,220.122 244.108,220.122C241.9,220.122 241.036,219.834 241.036,217.53C241.036,215.61 244.684,215.61 248.524,215.61L250.252,215.61L250.252,217.05ZM236.428,192.186C234.22,192.858 232.684,194.778 232.684,197.37C232.684,200.346 234.796,202.362 237.772,202.362C238.156,202.362 238.732,202.362 239.116,202.266C241.036,201.882 242.764,201.882 244.3,201.882C247.372,201.882 250.252,202.458 250.252,206.874L249.388,206.874C247.084,205.722 246.028,205.338 242.86,205.338C237.1,205.338 229.708,207.066 229.708,216.762C229.708,226.65 233.836,230.298 241.228,230.298C242.86,230.298 247.66,230.394 250.252,225.69C250.252,227.706 252.748,229.818 255.916,229.818C259.084,229.818 261.58,227.706 261.58,225.69L261.58,205.914C261.58,194.394 254.956,190.938 244.876,190.938C242.572,190.938 239.5,191.418 236.428,192.186Z" style="fill-rule:nonzero;"/>
        <path d="M289.036,229.818C291.82,229.818 294.22,227.514 294.22,224.73C294.22,221.946 291.82,219.546 289.036,219.546L285.964,219.546C284.524,219.546 284.524,218.298 284.524,216.666L284.524,201.69L289.036,201.69C291.82,201.69 294.22,199.386 294.22,196.602C294.22,193.818 291.82,191.418 289.036,191.418L284.524,191.418L284.524,184.122C284.524,182.106 282.028,179.994 278.86,179.994C275.692,179.994 273.196,182.106 273.196,184.122L273.196,191.418L270.604,191.418C267.82,191.418 265.42,193.818 265.42,196.602C265.42,199.386 267.82,201.69 270.604,201.69L273.196,201.69L273.196,216.666C273.196,227.034 276.364,229.818 286.348,229.818L289.036,229.818Z" style="fill-rule:nonzero;"/>
        <path d="M319.468,229.818C322.252,229.818 324.652,227.514 324.652,224.73C324.652,221.946 322.252,219.546 319.468,219.546L316.396,219.546C314.956,219.546 314.956,218.298 314.956,216.666L314.956,201.69L319.468,201.69C322.252,201.69 324.652,199.386 324.652,196.602C324.652,193.818 322.252,191.418 319.468,191.418L314.956,191.418L314.956,184.122C314.956,182.106 312.46,179.994 309.292,179.994C306.124,179.994 303.628,182.106 303.628,184.122L303.628,191.418L301.036,191.418C298.252,191.418 295.852,193.818 295.852,196.602C295.852,199.386 298.252,201.69 301.036,201.69L303.628,201.69L303.628,216.666C303.628,227.034 306.796,229.818 316.78,229.818L319.468,229.818Z" style="fill-rule:nonzero;"/>
        <path d="M345.292,190.938C329.452,190.938 329.164,197.946 329.164,207.162L329.164,214.266C329.164,223.194 329.452,230.298 345.292,230.298C360.844,230.298 361.42,223.194 361.42,214.266L361.42,207.162C361.42,197.946 360.844,190.938 345.292,190.938ZM350.092,214.746C350.092,217.05 349.996,220.122 345.292,220.122C340.588,220.122 340.492,217.05 340.492,214.746L340.492,207.258C340.492,204.954 340.588,201.882 345.292,201.882C349.996,201.882 350.092,204.954 350.092,207.258L350.092,214.746Z" style="fill-rule:nonzero;"/>
        <g transform="matrix(1,0,0,1,-9,2)">
            <path d="M206.092,262.554C206.092,264.954 205.996,268.122 201.292,268.122C196.588,268.122 196.492,264.954 196.492,262.554L196.492,253.722C196.492,251.898 197.836,249.882 201.964,249.882C205.996,249.882 206.092,252.762 206.092,255.162L206.092,262.554ZM196.492,273.21C198.028,278.202 206.188,278.298 206.668,278.298C217.132,278.298 217.42,271.29 217.42,262.17L217.42,255.066C217.42,245.946 217.324,238.938 205.804,238.938C204.844,238.938 199.468,238.938 197.356,243.162L196.492,243.162L196.492,230.49C196.492,228.474 193.996,226.362 190.828,226.362C187.66,226.362 185.164,228.474 185.164,230.49L185.164,273.69C185.164,275.706 187.66,277.818 190.828,277.818C193.996,277.818 196.492,275.706 196.492,273.69L196.492,273.21Z" style="fill-rule:nonzero;"/>
        </g>
        <g transform="matrix(1,0,0,1,-9,2)">
            <path d="M225.58,273.69C225.58,275.706 228.076,277.818 231.244,277.818C234.412,277.818 236.908,275.706 236.908,273.69L236.908,243.546C236.908,241.53 234.412,239.418 231.244,239.418C228.076,239.418 225.58,241.53 225.58,243.546L225.58,273.69Z" style="fill-rule:nonzero;"/>
        </g>
        <g transform="matrix(1,0,0,1,-9,2)">
            <path d="M246.508,273.69C246.508,275.706 249.004,277.818 252.172,277.818C255.34,277.818 257.836,275.706 257.836,273.69L257.836,243.546C257.836,241.53 255.34,239.418 252.172,239.418C249.004,239.418 246.508,241.53 246.508,243.546L246.508,273.69Z" style="fill-rule:nonzero;"/>
        </g>
        <g transform="matrix(1,0,0,1,-9,2)">
            <path d="M286.732,277.818C289.516,277.818 291.916,275.514 291.916,272.73C291.916,269.946 289.516,267.546 286.732,267.546L283.66,267.546C282.22,267.546 282.22,266.298 282.22,264.666L282.22,249.69L286.732,249.69C289.516,249.69 291.916,247.386 291.916,244.602C291.916,241.818 289.516,239.418 286.732,239.418L282.22,239.418L282.22,232.122C282.22,230.106 279.724,227.994 276.556,227.994C273.388,227.994 270.892,230.106 270.892,232.122L270.892,239.418L268.3,239.418C265.516,239.418 263.116,241.818 263.116,244.602C263.116,247.386 265.516,249.69 268.3,249.69L270.892,249.69L270.892,264.666C270.892,275.034 274.06,277.818 284.044,277.818L286.732,277.818Z" style="fill-rule:nonzero;"/>
        </g>
        <g transform="matrix(1,0,0,1,-9,2)">
            <path d="M312.556,238.938C296.716,238.938 296.428,245.946 296.428,255.162L296.428,262.266C296.428,271.194 296.716,278.298 312.556,278.298C328.108,278.298 328.684,271.194 328.684,262.266L328.684,255.162C328.684,245.946 328.108,238.938 312.556,238.938ZM317.356,262.746C317.356,265.05 317.26,268.122 312.556,268.122C307.852,268.122 307.756,265.05 307.756,262.746L307.756,255.258C307.756,252.954 307.852,249.882 312.556,249.882C317.26,249.882 317.356,252.954 317.356,255.258L317.356,262.746Z" style="fill-rule:nonzero;"/>
        </g>
    </g>
</svg>
